HIERARCHY
ROOT joint_Root
{
	OFFSET 0.0 0.0 0.0
	CHANNELS 6 Xposition Yposition Zposition Zrotation Xrotation Yrotation 
	JOINT Hips
	{
		OFFSET -0.726466 93.3139 -2.00062
		CHANNELS 6 Xposition Yposition Zposition Zrotation Xrotation Yrotation 
		JOINT Spine
		{
			OFFSET 15.7357 0.0 0.0
			CHANNELS 6 Xposition Yposition Zposition Zrotation Xrotation Yrotation 
			JOINT Chest
			{
				OFFSET 8.98455 -0.406207 0.0
				CHANNELS 6 Xposition Yposition Zposition Zrotation Xrotation Yrotation 
				JOINT Neck
				{
					OFFSET 16.3773 0.0 0.0
					CHANNELS 6 Xposition Yposition Zposition Zrotation Xrotation Yrotation 
					JOINT Head
					{
						OFFSET 6.45672 0.0 0.0
						CHANNELS 6 Xposition Yposition Zposition Zrotation Xrotation Yrotation 
						End Site
						{
							OFFSET 0.0 0.0 0.0
						}
					}
				}
				JOINT Shoulder_L
				{
					OFFSET 12.9942 -0.242716 4.98039
					CHANNELS 6 Xposition Yposition Zposition Zrotation Xrotation Yrotation 
					JOINT UpperArm_L
					{
						OFFSET 5.34809 0.0 0.0
						CHANNELS 6 Xposition Yposition Zposition Zrotation Xrotation Yrotation 
						JOINT LowerArm_L
						{
							OFFSET 24.3286 1.87007e-05 0.0
							CHANNELS 6 Xposition Yposition Zposition Zrotation Xrotation Yrotation 
							JOINT Hand_L
							{
								OFFSET 22.2916 0.0 0.0
								CHANNELS 6 Xposition Yposition Zposition Zrotation Xrotation Yrotation 
								End Site
								{
									OFFSET 0.0 0.0 0.0
								}
							}
						}
					}
				}
				JOINT Shoulder_R
				{
					OFFSET 12.9945 -0.242716 -4.98039
					CHANNELS 6 Xposition Yposition Zposition Zrotation Xrotation Yrotation 
					JOINT UpperArm_R
					{
						OFFSET -5.34813 0.0 0.0
						CHANNELS 6 Xposition Yposition Zposition Zrotation Xrotation Yrotation 
						JOINT LowerArm_R
						{
							OFFSET -24.3289 0.000322201 0.0
							CHANNELS 6 Xposition Yposition Zposition Zrotation Xrotation Yrotation 
							JOINT Hand_R
							{
								OFFSET -22.2915 -0.000108084 0.0
								CHANNELS 6 Xposition Yposition Zposition Zrotation Xrotation Yrotation 
								End Site
								{
									OFFSET 0.0 0.0 0.0
								}
							}
						}
					}
				}
			}
		}
		JOINT UpperLeg_L
		{
			OFFSET -2.19248 -6.46944 0.0
			CHANNELS 6 Xposition Yposition Zposition Zrotation Xrotation Yrotation 
			JOINT LowerLeg_L
			{
				OFFSET 39.0811 0.0 -1.23785e-05
				CHANNELS 6 Xposition Yposition Zposition Zrotation Xrotation Yrotation 
				JOINT Foot_L
				{
					OFFSET 40.9854 0.0 -1.26872e-05
					CHANNELS 6 Xposition Yposition Zposition Zrotation Xrotation Yrotation 
					JOINT Toes_L
					{
						OFFSET 11.7543 0.0 0.0
						CHANNELS 6 Xposition Yposition Zposition Zrotation Xrotation Yrotation 
						End Site
						{
							OFFSET 0.0 0.0 0.0
						}
					}
				}
			}
		}
		JOINT UpperLeg_R
		{
			OFFSET -2.19251 6.46944 0.0
			CHANNELS 6 Xposition Yposition Zposition Zrotation Xrotation Yrotation 
			JOINT LowerLeg_R
			{
				OFFSET -39.0811 -0.00228153 -0.0401928
				CHANNELS 6 Xposition Yposition Zposition Zrotation Xrotation Yrotation 
				JOINT Foot_R
				{
					OFFSET -40.9854 0.0 0.0
					CHANNELS 6 Xposition Yposition Zposition Zrotation Xrotation Yrotation 
					JOINT Toes_R
					{
						OFFSET -11.7543 0.0 0.0
						CHANNELS 6 Xposition Yposition Zposition Zrotation Xrotation Yrotation 
						End Site
						{
							OFFSET 0.0 0.0 0.0
						}
					}
				}
			}
		}
	}
}
MOTION
Frames:	6
Frame Time:	0.0333333
0.000000 0.000000 0.000000 0.000000 0.000000 -0.000000 0.121528 92.859700 -0.564853 88.050800 -10.613000 2.577550 15.735700 0.000005 -0.000001 99.722500 86.871800 -99.945700 8.984550 -0.406207 -0.000000 -1.597360 1.074570 -0.431377 16.377300 -0.000001 -0.000001 3.777450 -1.167200 4.396690 6.456720 -0.000001 -0.000000 8.242350 0.320852 -4.488590 12.994200 -0.242716 4.980390 -90.449000 1.375720 -71.924300 5.348090 -0.000007 -0.000001 -68.851300 38.439900 -9.793360 24.328600 0.000019 0.000005 3.425510 8.736520 -21.508300 22.291600 -0.000001 0.000005 3.872970 5.487820 -6.050580 12.994500 -0.242716 -4.980390 88.428800 5.043280 -72.670500 -5.348130 -0.000001 -0.000004 -67.479200 -15.171800 -70.934800 -24.328900 0.000322 -0.000009 19.783500 -6.098800 -106.456000 -22.291500 -0.000108 -0.000004 20.807500 5.221420 2.176180 -2.192480 -6.469440 -0.000000 -175.727000 -11.763400 -0.469141 39.081100 -0.000007 -0.000012 -0.077957 0.241495 17.890600 40.985400 -0.000006 -0.000013 -1.141040 -1.231550 -64.459300 11.754300 -0.000000 0.000003 -0.000001 -0.000010 -16.577900 -2.192510 6.469440 -0.000001 179.198000 6.053500 -179.194000 -39.081100 -0.002282 -0.040193 -0.029535 0.130724 14.113000 -40.985400 0.000008 0.000006 1.847340 10.550200 -62.720900 -11.754300 -0.000006 -0.000006 -0.003243 -0.043327 -18.335200
0.000000 0.000000 0.000000 0.000000 0.000000 -0.000000 0.131266 92.863800 -0.584973 88.096300 -10.384800 2.584790 15.735700 0.000005 -0.000001 99.208300 86.833200 -99.422500 8.984550 -0.406207 -0.000000 -1.512200 1.030630 -0.414784 16.377300 -0.000001 -0.000001 3.675280 -1.156940 4.432890 6.456720 -0.000001 -0.000000 8.053350 0.417930 -4.568490 12.994200 -0.242716 4.980390 -90.470600 1.438350 -71.881800 5.348090 -0.000007 -0.000001 -68.802600 38.303500 -9.766160 24.328600 0.000019 0.000005 3.418090 8.718640 -21.505600 22.291600 -0.000001 0.000005 3.925180 5.486650 -6.005050 12.994500 -0.242716 -4.980390 88.391000 5.136860 -72.581700 -5.348130 -0.000001 -0.000004 -66.271500 -15.211000 -69.397500 -24.328900 0.000322 -0.000009 19.019700 -5.960220 -106.764000 -22.291500 -0.000108 -0.000004 20.441400 5.226190 2.053910 -2.192480 -6.469440 -0.000000 -175.787000 -11.612500 -0.495529 39.081100 -0.000007 -0.000012 -0.076473 0.237503 17.847900 40.985400 -0.000006 -0.000013 -1.114450 -1.149040 -64.407100 11.754300 -0.000000 0.000003 -0.000000 -0.000004 -16.577600 -2.192510 6.469440 -0.000001 179.155000 6.139020 -179.206000 -39.081100 -0.002282 -0.040193 -0.029212 0.129185 14.139600 -40.985400 0.000008 0.000006 1.892880 10.445700 -62.745400 -11.754300 -0.000006 -0.000006 -0.003443 -0.045511 -18.424100
0.000000 0.000000 0.000000 0.000000 0.000000 -0.000000 0.134966 92.866900 -0.608862 88.139600 -10.080400 2.550220 15.735700 0.000005 -0.000001 98.803000 86.814400 -99.005800 8.984550 -0.406207 -0.000000 -1.468110 0.991154 -0.392823 16.377300 -0.000001 -0.000001 3.584960 -1.151200 4.370630 6.456720 -0.000001 -0.000000 7.849590 0.459531 -4.554030 12.994200 -0.242716 4.980390 -90.489400 1.495130 -71.872100 5.348090 -0.000007 -0.000001 -68.700600 38.308400 -9.781430 24.328600 0.000019 0.000005 3.389300 8.629940 -21.538200 22.291600 -0.000001 0.000005 4.035710 5.486720 -6.007800 12.994500 -0.242716 -4.980390 88.359500 5.199750 -72.462500 -5.348130 -0.000001 -0.000004 -64.517500 -14.917100 -66.687300 -24.328900 0.000322 -0.000009 17.628000 -5.670710 -107.274000 -22.291500 -0.000108 -0.000004 20.034300 5.230420 1.943690 -2.192480 -6.469440 -0.000000 -175.832000 -11.522000 -0.598698 39.081100 -0.000007 -0.000012 -0.077015 0.239344 17.836900 40.985400 -0.000006 -0.000013 -1.070180 -0.928398 -64.349700 11.754300 -0.000000 0.000003 -0.000000 -0.000006 -16.577700 -2.192510 6.469440 -0.000001 179.122000 6.286430 -179.236000 -39.081100 -0.002282 -0.040193 -0.029513 0.130360 14.141500 -40.985400 0.000008 0.000006 1.867210 10.267100 -62.750500 -11.754300 -0.000006 -0.000006 -0.003439 -0.045470 -18.422500
0.000000 0.000000 0.000000 0.000000 0.000000 -0.000000 0.116438 92.868600 -0.612227 88.160100 -9.678980 2.542120 15.735700 0.000005 -0.000001 98.070000 86.791100 -98.277200 8.984550 -0.406207 -0.000000 -1.410230 0.917326 -0.402883 16.377300 -0.000001 -0.000001 3.435330 -1.214070 4.377460 6.456720 -0.000001 -0.000000 7.736760 0.518246 -4.450550 12.994200 -0.242716 4.980390 -90.491000 1.501140 -71.887200 5.348090 -0.000007 -0.000001 -68.551200 38.407500 -9.907250 24.328600 0.000019 0.000005 3.312160 8.463520 -21.465000 22.291600 -0.000001 0.000005 4.062350 5.487750 -6.047420 12.994500 -0.242716 -4.980390 88.277000 5.447210 -72.417300 -5.348130 -0.000001 -0.000004 -61.967900 -14.178600 -62.697800 -24.328900 0.000322 -0.000009 15.895600 -5.222490 -107.726000 -22.291500 -0.000108 -0.000004 19.567300 5.246410 1.526640 -2.192480 -6.469440 -0.000000 -175.838000 -11.355500 -0.678459 39.081100 -0.000007 -0.000012 -0.076273 0.236874 17.848400 40.985400 -0.000006 -0.000013 -1.040070 -0.698140 -64.310500 11.754300 -0.000000 0.000003 -0.000000 -0.000007 -16.577700 -2.192510 6.469440 -0.000001 179.127000 6.480050 -179.204000 -39.081100 -0.002282 -0.040193 -0.028942 0.128332 14.116500 -40.985400 0.000008 0.000006 1.861460 10.071400 -62.762100 -11.754300 -0.000006 -0.000006 -0.003357 -0.044574 -18.386000
0.000000 0.000000 0.000000 0.000000 0.000000 -0.000000 0.097150 92.865900 -0.622911 88.254500 -9.266050 2.565560 15.735700 0.000005 -0.000001 97.410300 86.747800 -97.634900 8.984550 -0.406207 -0.000000 -1.314360 0.856509 -0.439263 16.377300 -0.000001 -0.000001 3.250840 -1.280740 4.272220 6.456720 -0.000001 -0.000000 7.563400 0.506535 -4.313450 12.994200 -0.242716 4.980390 -90.510100 1.554910 -71.835800 5.348090 -0.000007 -0.000001 -68.456300 38.380000 -10.012400 24.328600 0.000019 0.000005 3.361120 8.565660 -21.519600 22.291600 -0.000001 0.000005 3.958220 5.485640 -5.965850 12.994500 -0.242716 -4.980390 88.134600 5.877450 -72.357100 -5.348130 -0.000001 -0.000004 -58.510900 -12.550200 -57.902800 -24.328900 0.000322 -0.000009 13.811000 -4.501280 -107.705000 -22.291500 -0.000108 -0.000004 19.218600 5.263070 1.084800 -2.192480 -6.469440 -0.000000 -175.908000 -11.219700 -0.709256 39.081100 -0.000007 -0.000012 -0.076355 0.237579 17.816700 40.985400 -0.000006 -0.000013 -1.004800 -0.437795 -64.255900 11.754300 -0.000000 0.000003 -0.000000 -0.000005 -16.577700 -2.192510 6.469440 -0.000001 179.038000 6.670960 -179.195000 -39.081100 -0.002282 -0.040193 -0.031872 0.139356 14.177300 -40.985400 0.000008 0.000006 1.713270 9.850780 -62.790000 -11.754300 -0.000006 -0.000006 -0.003189 -0.042726 -18.310800
0.000000 0.000000 0.000000 0.000000 0.000000 -0.000000 0.070131 92.865100 -0.623623 88.309800 -8.844980 2.618620 15.735700 0.000005 -0.000001 96.713700 86.703000 -96.930900 8.984550 -0.406207 -0.000000 -1.215780 0.787735 -0.425827 16.377300 -0.000001 -0.000001 3.155050 -1.277690 4.157970 6.456720 -0.000001 -0.000000 7.309990 0.547219 -4.282520 12.994200 -0.242716 4.980390 -90.523000 1.595690 -71.849200 5.348090 -0.000007 -0.000001 -68.405200 38.482500 -10.033300 24.328600 0.000019 0.000005 3.321430 8.451100 -21.548300 22.291600 -0.000001 0.000005 3.903180 5.486570 -6.001580 12.994500 -0.242716 -4.980390 87.977300 6.333160 -72.246500 -5.348130 -0.000001 -0.000004 -54.736200 -9.715470 -52.530200 -24.328900 0.000322 -0.000009 12.683600 -3.916620 -106.883000 -22.291500 -0.000108 -0.000004 18.425300 5.274540 0.774405 -2.192480 -6.469440 -0.000000 -175.952000 -10.926400 -0.721128 39.081100 -0.000007 -0.000012 -0.076014 0.236639 17.808200 40.985400 -0.000006 -0.000013 -0.998187 -0.329641 -64.212800 11.754300 -0.000000 0.000003 -0.000000 -0.000004 -16.577600 -2.192510 6.469440 -0.000001 178.999000 6.861450 -179.117000 -39.081100 -0.002282 -0.040193 -0.032471 0.141544 14.194700 -40.985400 0.000008 0.000006 1.673510 9.646920 -62.827300 -11.754300 -0.000006 -0.000006 -0.003200 -0.042849 -18.315800
